REM DIRINDEX 1\2,1\3
REM DIRNAME cjc102,folder01,folder02
TITLE ""
FILE "CD1Track30.mp3" MP3
  TRACK 01 AUDIO
    TITLE "0:"
    INDEX 01 00:00:00
  TRACK 02 AUDIO
    TITLE "2:cjc102_1353"
    INDEX 01 00:00:25
  TRACK 03 AUDIO
    TITLE "0:"
    INDEX 01 00:01:34
  TRACK 04 AUDIO
    TITLE "3:cjc102_1354"
    INDEX 01 00:01:58
  TRACK 05 AUDIO
    TITLE "0:"
    INDEX 01 00:03:21
  TRACK 06 AUDIO
    TITLE "3:cjc102_1355"
    INDEX 01 00:04:21
  TRACK 07 AUDIO
    TITLE "0:"
    INDEX 01 00:09:30
  TRACK 08 AUDIO
    TITLE "2:cjc102_1356"
    INDEX 01 00:09:34
  TRACK 09 AUDIO
    TITLE "0:"
    INDEX 01 00:10:43
  TRACK 10 AUDIO
    TITLE "3:cjc102_1357"
    INDEX 01 00:11:37
  TRACK 11 AUDIO
    TITLE "0:"
    INDEX 01 00:12:34
  TRACK 12 AUDIO
    TITLE "2:cjc102_1358"
    INDEX 01 00:12:54
  TRACK 13 AUDIO
    TITLE "0:"
    INDEX 01 00:13:65
  TRACK 14 AUDIO
    TITLE "3:cjc102_1359"
    INDEX 01 00:14:56
  TRACK 15 AUDIO
    TITLE "0:"
    INDEX 01 00:15:42
  TRACK 16 AUDIO
    TITLE "2:cjc102_1360"
    INDEX 01 00:15:72
  TRACK 17 AUDIO
    TITLE "0:"
    INDEX 01 00:17:21
  TRACK 18 AUDIO
    TITLE "3:cjc102_1361"
    INDEX 01 00:18:42
  TRACK 19 AUDIO
    TITLE "0:"
    INDEX 01 00:19:44
  TRACK 20 AUDIO
    TITLE "2:cjc102_1362"
    INDEX 01 00:19:65
  TRACK 21 AUDIO
    TITLE "0:"
    INDEX 01 00:21:06
  TRACK 22 AUDIO
    TITLE "3:cjc102_1363"
    INDEX 01 00:22:03
  TRACK 23 AUDIO
    TITLE "0:"
    INDEX 01 00:22:74
  TRACK 24 AUDIO
    TITLE "2:cjc102_1364"
    INDEX 01 00:23:14
  TRACK 25 AUDIO
    TITLE "0:"
    INDEX 01 00:24:25
  TRACK 26 AUDIO
    TITLE "3:cjc102_1365"
    INDEX 01 00:25:29
  TRACK 27 AUDIO
    TITLE "0:"
    INDEX 01 00:26:07
  TRACK 28 AUDIO
    TITLE "2:cjc102_1366"
    INDEX 01 00:26:09
  TRACK 29 AUDIO
    TITLE "0:"
    INDEX 01 00:27:16
  TRACK 30 AUDIO
    TITLE "3:cjc102_1367"
    INDEX 01 00:28:19
  TRACK 31 AUDIO
    TITLE "0:"
    INDEX 01 00:29:19
  TRACK 32 AUDIO
    TITLE "2:cjc102_1368"
    INDEX 01 00:29:40
  TRACK 33 AUDIO
    TITLE "0:"
    INDEX 01 00:30:48
  TRACK 34 AUDIO
    TITLE "3:cjc102_1369"
    INDEX 01 00:31:45
  TRACK 35 AUDIO
    TITLE "0:"
    INDEX 01 00:32:39
  TRACK 36 AUDIO
    TITLE "2:cjc102_1370"
    INDEX 01 00:33:36
  TRACK 37 AUDIO
    TITLE "0:"
    INDEX 01 00:34:49
  TRACK 38 AUDIO
    TITLE "3:cjc102_1371"
    INDEX 01 00:35:39
  TRACK 39 AUDIO
    TITLE "0:"
    INDEX 01 00:36:36
  TRACK 40 AUDIO
    TITLE "2:cjc102_1372"
    INDEX 01 00:36:56
  TRACK 41 AUDIO
    TITLE "0:"
    INDEX 01 00:37:71
  TRACK 42 AUDIO
    TITLE "3:cjc102_1373"
    INDEX 01 00:38:35
  TRACK 43 AUDIO
    TITLE "0:"
    INDEX 01 00:39:27
  TRACK 44 AUDIO
    TITLE "2:cjc102_1374"
    INDEX 01 00:40:15
  TRACK 45 AUDIO
    TITLE "0:"
    INDEX 01 00:41:40
  TRACK 46 AUDIO
    TITLE "3:cjc102_1375"
    INDEX 01 00:42:23
  TRACK 47 AUDIO
    TITLE "0:"
    INDEX 01 00:43:19
  TRACK 48 AUDIO
    TITLE "2:cjc102_1376"
    INDEX 01 00:43:66
  TRACK 49 AUDIO
    TITLE "0:"
    INDEX 01 00:45:12
  TRACK 50 AUDIO
    TITLE "3:cjc102_1377"
    INDEX 01 00:45:71
  TRACK 51 AUDIO
    TITLE "0:"
    INDEX 01 00:47:13
  TRACK 52 AUDIO
    TITLE "2:cjc102_1378"
    INDEX 01 00:47:38
  TRACK 53 AUDIO
    TITLE "0:"
    INDEX 01 00:48:51
  TRACK 54 AUDIO
    TITLE "3:cjc102_1379"
    INDEX 01 00:49:27
  TRACK 55 AUDIO
    TITLE "0:"
    INDEX 01 00:50:39
  TRACK 56 AUDIO
    TITLE "2:cjc102_1380"
    INDEX 01 00:51:13
  TRACK 57 AUDIO
    TITLE "0:"
    INDEX 01 00:52:18
  TRACK 58 AUDIO
    TITLE "3:cjc102_1381"
    INDEX 01 00:53:33
  TRACK 59 AUDIO
    TITLE "0:"
    INDEX 01 00:54:54
  TRACK 60 AUDIO
    TITLE "2:cjc102_1382"
    INDEX 01 00:54:70
  TRACK 61 AUDIO
    TITLE "0:"
    INDEX 01 00:56:14
  TRACK 62 AUDIO
    TITLE "3:cjc102_1383"
    INDEX 01 00:57:17
  TRACK 63 AUDIO
    TITLE "0:"
    INDEX 01 00:58:34
  TRACK 64 AUDIO
    TITLE "2:cjc102_1384"
    INDEX 01 00:58:36
  TRACK 65 AUDIO
    TITLE "0:"
    INDEX 01 00:59:53
  TRACK 66 AUDIO
    TITLE "3:cjc102_1385"
    INDEX 01 01:00:21
  TRACK 67 AUDIO
    TITLE "0:"
    INDEX 01 01:01:27
  TRACK 68 AUDIO
    TITLE "2:cjc102_1386"
    INDEX 01 01:01:38
  TRACK 69 AUDIO
    TITLE "0:"
    INDEX 01 01:02:59
  TRACK 70 AUDIO
    TITLE "3:cjc102_1387"
    INDEX 01 01:04:05
  TRACK 71 AUDIO
    TITLE "0:"
    INDEX 01 01:05:05
  TRACK 72 AUDIO
    TITLE "2:cjc102_1388"
    INDEX 01 01:05:15
  TRACK 73 AUDIO
    TITLE "0:"
    INDEX 01 01:06:14
  TRACK 74 AUDIO
    TITLE "3:cjc102_1389"
    INDEX 01 01:06:51
  TRACK 75 AUDIO
    TITLE "0:"
    INDEX 01 01:07:72
  TRACK 76 AUDIO
    TITLE "2:cjc102_1390"
    INDEX 01 01:08:21
  TRACK 77 AUDIO
    TITLE "0:"
    INDEX 01 01:09:36
  TRACK 78 AUDIO
    TITLE "2:cjc102_1391"
    INDEX 01 01:10:06
  TRACK 79 AUDIO
    TITLE "0:"
    INDEX 01 01:11:31
  TRACK 80 AUDIO
    TITLE "3:cjc102_1392"
    INDEX 01 01:12:05
  TRACK 81 AUDIO
    TITLE "0:"
    INDEX 01 01:13:18
  TRACK 82 AUDIO
    TITLE "2:cjc102_1393"
    INDEX 01 01:13:30
  TRACK 83 AUDIO
    TITLE "0:"
    INDEX 01 01:14:31
  TRACK 84 AUDIO
    TITLE "2:cjc102_1394"
    INDEX 01 01:15:07
  TRACK 85 AUDIO
    TITLE "0:"
    INDEX 01 01:16:30
  TRACK 86 AUDIO
    TITLE "3:cjc102_1395"
    INDEX 01 01:16:48
  TRACK 87 AUDIO
    TITLE "0:"
    INDEX 01 01:17:71
  TRACK 88 AUDIO
    TITLE "2:cjc102_1396"
    INDEX 01 01:18:31
  TRACK 89 AUDIO
    TITLE "0:"
    INDEX 01 01:19:36
  TRACK 90 AUDIO
    TITLE "2:cjc102_1397"
    INDEX 01 01:20:22
  TRACK 91 AUDIO
    TITLE "0:"
    INDEX 01 01:21:33
  TRACK 92 AUDIO
    TITLE "3:cjc102_1398"
    INDEX 01 01:21:67
  TRACK 93 AUDIO
    TITLE "0:"
    INDEX 01 01:23:03
  TRACK 94 AUDIO
    TITLE "2:cjc102_1399"
    INDEX 01 01:23:34
  TRACK 95 AUDIO
    TITLE "0:"
    INDEX 01 01:24:41
  TRACK 96 AUDIO
    TITLE "2:cjc102_1400"
    INDEX 01 01:25:11
  TRACK 97 AUDIO
    TITLE "0:"
    INDEX 01 01:26:25
  TRACK 98 AUDIO
    TITLE "3:cjc102_1401"
    INDEX 01 01:27:04
  TRACK 99 AUDIO
    TITLE "0:"
    INDEX 01 01:28:33
  TRACK 100 AUDIO
    TITLE "2:cjc102_1402"
    INDEX 01 01:28:39
  TRACK 101 AUDIO
    TITLE "0:"
    INDEX 01 01:29:54
  TRACK 102 AUDIO
    TITLE "2:cjc102_1403"
    INDEX 01 01:30:24
  TRACK 103 AUDIO
    TITLE "0:"
    INDEX 01 01:31:51
  TRACK 104 AUDIO
    TITLE "3:cjc102_1404"
    INDEX 01 01:32:08
  TRACK 105 AUDIO
    TITLE "0:"
    INDEX 01 01:33:29
  TRACK 106 AUDIO
    TITLE "2:cjc102_1405"
    INDEX 01 01:34:01
  TRACK 107 AUDIO
    TITLE "0:"
    INDEX 01 01:35:12
  TRACK 108 AUDIO
    TITLE "2:cjc102_1406"
    INDEX 01 01:35:53
  TRACK 109 AUDIO
    TITLE "0:"
    INDEX 01 01:37:01
  TRACK 110 AUDIO
    TITLE "3:cjc102_1407"
    INDEX 01 01:37:71
  TRACK 111 AUDIO
    TITLE "0:"
    INDEX 01 01:39:23
  TRACK 112 AUDIO
    TITLE "2:cjc102_1408"
    INDEX 01 01:39:45
  TRACK 113 AUDIO
    TITLE "0:"
    INDEX 01 01:41:56
  TRACK 114 AUDIO
    TITLE "3:cjc102_1409"
    INDEX 01 01:42:71
  TRACK 115 AUDIO
    TITLE "0:"
    INDEX 01 01:44:26
  TRACK 116 AUDIO
    TITLE "2:cjc102_1410"
    INDEX 01 01:44:28
  TRACK 117 AUDIO
    TITLE "0:"
    INDEX 01 01:47:31
  TRACK 118 AUDIO
    TITLE "3:cjc102_1411"
    INDEX 01 01:48:54
  TRACK 119 AUDIO
    TITLE "0:"
    INDEX 01 01:49:73
  TRACK 120 AUDIO
    TITLE "2:cjc102_1412"
    INDEX 01 01:50:31
  TRACK 121 AUDIO
    TITLE "0:"
    INDEX 01 01:54:50
